<svg width="13" height="13" viewBox="0 0 13 13" fill="none" xmlns="http://www.w3.org/2000/svg">
<path d="M5.43946 1.03764C5.63065 0.449222 6.4631 0.449222 6.65429 1.03764L7.62417 4.02264C7.70968 4.28579 7.9549 4.46395 8.23159 4.46395L11.3702 4.46395C11.9889 4.46395 12.2461 5.25566 11.7456 5.61932L9.20641 7.46415C8.98256 7.62678 8.8889 7.91506 8.9744 8.17821L9.94429 11.1632C10.1355 11.7516 9.46201 12.2409 8.96147 11.8773L6.42228 10.0324C6.19843 9.8698 5.89532 9.8698 5.67147 10.0324L3.13228 11.8773C2.63174 12.2409 1.95828 11.7516 2.14947 11.1632L3.11935 8.17821C3.20485 7.91506 3.11119 7.62678 2.88734 7.46415L0.348146 5.61932C-0.15239 5.25566 0.104851 4.46395 0.723548 4.46395L3.86216 4.46395C4.13885 4.46395 4.38407 4.28579 4.46958 4.02264L5.43946 1.03764Z" fill="#FFBA79"/>
</svg>
