<svg width="34" height="32" viewBox="0 0 34 32" fill="none" xmlns="http://www.w3.org/2000/svg">
<path d="M16.9048 22.9296C17.0624 22.836 17.2585 22.8362 17.416 22.93L23.0323 26.2767L23.0324 26.2767C23.6974 26.6733 24.4712 26.0801 24.3062 25.3811L22.8176 19.088C22.7744 18.9055 22.8369 18.7143 22.9795 18.5926L27.9462 14.3526L27.9464 14.3524C28.5063 13.8749 28.2172 12.9573 27.4604 12.898L27.4578 12.8978L20.9212 12.3511C20.7371 12.3357 20.5765 12.2201 20.5036 12.0504L17.9458 6.10375L17.9451 6.10217C17.6577 5.42753 16.6624 5.42753 16.3749 6.10217L16.3741 6.10413L13.8163 12.0375C13.7432 12.2069 13.5827 12.3224 13.3988 12.3378L6.86221 12.8845L6.8596 12.8847L6.8596 12.8847C6.1028 12.944 5.81375 13.8616 6.3736 14.3391L6.37377 14.3392L11.3405 18.5792C11.4831 18.701 11.5456 18.8922 11.5024 19.0746L10.0138 25.3677L16.9048 22.9296ZM16.9048 22.9296L11.2885 26.2629L11.2876 26.2634M16.9048 22.9296L11.2876 26.2634M11.2876 26.2634C10.6227 26.6599 9.84899 26.0669 10.0138 25.368L11.2876 26.2634Z" fill="#FFBA79" stroke="#FFBA79" stroke-linejoin="round"/>
</svg>
