<svg width="33" height="32" viewBox="0 0 33 32" fill="none" xmlns="http://www.w3.org/2000/svg">
<path d="M16.4248 22.9296C16.5824 22.836 16.7785 22.8362 16.936 22.93L22.5523 26.2767L22.5524 26.2767C23.2174 26.6733 23.9912 26.0801 23.8262 25.3811L22.3376 19.088C22.2944 18.9055 22.3569 18.7143 22.4995 18.5926L27.4663 14.3526L27.4664 14.3524C28.0263 13.8749 27.7372 12.9573 26.9804 12.898L26.9778 12.8978L20.4412 12.3511C20.2572 12.3357 20.0966 12.2201 20.0236 12.0504L17.4658 6.10375L17.4651 6.10217C17.1777 5.42753 16.1824 5.42753 15.8949 6.10217L15.8941 6.10413L13.3363 12.0375C13.2632 12.2069 13.1028 12.3224 12.9188 12.3378L6.38223 12.8845L6.37962 12.8847L6.37962 12.8847C5.62282 12.944 5.33377 13.8616 5.89362 14.3391L5.89379 14.3392L10.8605 18.5792C11.0031 18.701 11.0656 18.8922 11.0225 19.0746L9.53385 25.3677L16.4248 22.9296ZM16.4248 22.9296L10.8085 26.2629L10.8076 26.2634M16.4248 22.9296L10.8076 26.2634M10.8076 26.2634C10.1427 26.6599 9.36901 26.0669 9.5338 25.368L10.8076 26.2634Z" fill="#FFBA79" stroke="#FFBA79" stroke-linejoin="round"/>
</svg>
