<svg width="17" height="15" viewBox="0 0 17 15" fill="none" xmlns="http://www.w3.org/2000/svg">
<path d="M7.71173 0.636941C7.95987 -0.126777 9.04033 -0.126776 9.28848 0.636942L10.5473 4.51125C10.6583 4.85279 10.9766 5.08403 11.3357 5.08403H15.4094C16.2124 5.08403 16.5463 6.11161 15.8966 6.58361L12.6009 8.97806C12.3104 9.18915 12.1888 9.56331 12.2998 9.90486L13.5586 13.7792C13.8068 14.5429 12.9327 15.178 12.283 14.7059L8.98735 12.3115C8.69681 12.1004 8.3034 12.1004 8.01286 12.3115L4.71718 14.7059C4.06752 15.178 3.19342 14.5429 3.44156 13.7792L4.7004 9.90486C4.81137 9.56331 4.6898 9.18915 4.39927 8.97806L1.10359 6.58361C0.45393 6.11161 0.78781 5.08403 1.59083 5.08403H5.66451C6.02364 5.08403 6.34192 4.85279 6.45289 4.51125L7.71173 0.636941Z" fill="#FFBA79"/>
</svg>
