<svg width="33" height="32" viewBox="0 0 33 32" fill="none" xmlns="http://www.w3.org/2000/svg">
<path d="M16.4649 22.9296C16.6225 22.836 16.8186 22.8362 16.976 22.93L22.5923 26.2767L22.5925 26.2767C23.2575 26.6733 24.0312 26.0801 23.8662 25.3811L22.3776 19.088C22.3345 18.9055 22.397 18.7143 22.5396 18.5926L27.5063 14.3526L27.5065 14.3524C28.0663 13.8749 27.7773 12.9573 27.0205 12.898L27.0179 12.8978L20.4813 12.3511C20.2972 12.3357 20.1366 12.2201 20.0636 12.0504L17.5058 6.10375L17.5051 6.10217C17.2177 5.42753 16.2224 5.42753 15.935 6.10217L15.9342 6.10413L13.3764 12.0375C13.3033 12.2069 13.1428 12.3224 12.9589 12.3378L6.42227 12.8845L6.41966 12.8847L6.41966 12.8847C5.66286 12.944 5.37381 13.8616 5.93366 14.3391L5.93383 14.3392L10.9006 18.5792C11.0431 18.701 11.1057 18.8922 11.0625 19.0746L9.57389 25.3677L16.4649 22.9296ZM16.4649 22.9296L10.8485 26.2629L10.8476 26.2634M16.4649 22.9296L10.8476 26.2634M10.8476 26.2634C10.1827 26.6599 9.40905 26.0669 9.57384 25.368L10.8476 26.2634Z" fill="#FFBA79" stroke="#FFBA79" stroke-linejoin="round"/>
</svg>
