<svg width="478" height="120" viewBox="0 0 478 120" fill="none" xmlns="http://www.w3.org/2000/svg">
<path d="M154.504 46.9257C154.504 38.3669 146.182 29.2769 131.779 29.2769C115.606 29.2769 97.8392 41.1412 95.124 64.8106C92.3498 88.7162 107.224 99.3409 122.217 99.3409C137.21 99.3409 145.06 93.4973 153.088 85.7058C146.182 77.029 137.269 81.0428 135.557 81.9282C133.668 82.8726 131.248 84.1712 126.29 84.1712C120.505 84.1712 114.603 81.574 114.603 70.7723C151.671 67.1126 154.504 55.4845 154.504 46.9257ZM136.147 48.3424C135.911 50.9985 134.849 55.5435 116.078 58.0817C120.033 44.0334 127.588 42.971 131.071 42.971C134.317 42.971 136.383 45.5091 136.147 48.3424ZM73.3434 50.6444C73.3434 50.6444 65.3748 75.6714 64.7256 77.7373C64.4894 75.6124 58.6459 30.6936 58.6459 30.6936C45.0699 30.6936 37.8097 40.3738 33.973 50.5853C33.973 50.5853 24.2927 75.6714 23.4663 77.7964C23.4073 75.8485 21.9907 50.8805 21.9907 50.8805C21.1643 38.3669 9.71326 30.7526 0.446167 30.7526L11.6611 98.8096C25.8864 98.7506 33.5598 89.1294 37.5736 78.9179C37.5736 78.9179 46.1323 56.7831 46.4865 55.7796C46.5455 56.7241 52.6252 98.8096 52.6252 98.8096C66.9095 98.8096 74.5829 89.7786 78.7147 79.9213L98.7246 30.7526C84.6173 30.7526 77.1801 40.3738 73.3434 50.6444ZM206.919 29.1589C198.124 29.1589 191.395 33.94 185.729 40.9641V40.9051L190.805 0C179.118 0 169.615 10.1525 167.785 25.2632L158.931 98.2784C165.66 98.2784 172.802 96.3305 176.639 91.3724C180.062 95.7993 185.198 99.3409 192.812 99.3409C212.527 99.3409 226.044 76.4388 226.044 54.9533C225.926 35.3566 216.423 29.1589 206.919 29.1589ZM205.09 64.2794C203.024 76.2617 196.354 84.4073 189.92 84.4073C183.427 84.4073 180.653 81.515 180.653 81.515C181.892 71.0084 182.66 64.5745 185.021 59.0261C187.382 53.4776 192.989 44.6237 198.833 44.6237C204.558 44.6237 207.155 52.2381 205.09 64.2794ZM275.272 30.7526H261.518L261.577 30.0443C262.522 21.0723 264.647 16.3502 271.671 15.5829C276.452 15.1107 278.577 12.6316 279.108 9.91638C279.521 7.79144 280.82 0.413182 280.82 0.413182C253.196 0.236104 244.519 12.1594 242.276 30.3394L242.217 30.7526H241.922C237.436 30.7526 232.478 35.8288 231.651 42.2627L231.356 44.6237H240.564L232.832 108.49L230.471 119.941C230.766 119.941 231.12 120 231.415 120C244.342 119.528 252.606 109.316 254.435 94.5007L260.456 44.6237H264.765C269.015 44.6237 273.973 40.3738 274.858 33.2907L275.272 30.7526ZM346.811 29.5721C330.933 29.5721 315.941 41.2592 311.336 59.6163C306.732 77.9734 313.698 99.695 337.072 99.695C360.387 99.695 373.845 77.088 373.845 58.2587C373.845 39.5475 361.154 29.5721 346.811 29.5721ZM353.245 63.6891C352.419 72.0118 348.759 84.6434 338.725 84.6434C328.631 84.6434 330.048 69.8869 331.051 62.8628C332.114 55.3665 336.305 44.6827 345.335 44.6827C353.422 44.6827 354.189 54.304 353.245 63.6891ZM452.291 50.6444C452.291 50.6444 444.322 75.6714 443.673 77.7373C443.437 75.6124 437.593 30.6936 437.593 30.6936C424.017 30.6936 416.757 40.3738 412.92 50.5853C412.92 50.5853 403.24 75.6714 402.414 77.7964C402.355 75.8485 400.938 50.8805 400.938 50.8805C400.112 38.3669 388.661 30.7526 379.394 30.7526L390.549 98.8096C404.775 98.7506 412.448 89.1294 416.462 78.9179C416.462 78.9179 425.021 56.7831 425.316 55.7796C425.434 56.7241 431.455 98.8096 431.455 98.8096C445.739 98.8096 453.412 89.7786 457.544 79.9213L477.554 30.7526C463.506 30.7526 456.068 40.3738 452.291 50.6444ZM288.257 0.413182L276.688 93.7334L274.327 105.243C274.622 105.243 274.976 105.303 275.272 105.303C287.726 105.125 296.58 94.2056 298.233 80.4525L304.903 26.9159C306.91 10.5657 297.17 0.413182 288.257 0.413182Z" fill="#F5F5F5"/>
</svg>
