<svg width="8" height="9" viewBox="0 0 8 9" fill="none" xmlns="http://www.w3.org/2000/svg">
<path d="M2.04107 4.04089C1.69971 4.04089 1.42041 4.32019 1.42041 4.66155C1.42041 5.00292 1.69971 5.28221 2.04107 5.28221C2.38243 5.28221 2.66173 5.00292 2.66173 4.66155C2.66173 4.32019 2.38243 4.04089 2.04107 4.04089Z" fill="#141522" stroke="#141522" stroke-width="0.372396"/>
<path d="M6.3858 4.04089C6.04443 4.04089 5.76514 4.32019 5.76514 4.66155C5.76514 5.00292 6.04443 5.28221 6.3858 5.28221C6.72716 5.28221 7.00646 5.00292 7.00646 4.66155C7.00646 4.32019 6.72716 4.04089 6.3858 4.04089Z" fill="#141522" stroke="#141522" stroke-width="0.372396"/>
<path d="M4.21343 4.04089C3.87207 4.04089 3.59277 4.32019 3.59277 4.66155C3.59277 5.00292 3.87207 5.28221 4.21343 5.28221C4.5548 5.28221 4.83409 5.00292 4.83409 4.66155C4.83409 4.32019 4.5548 4.04089 4.21343 4.04089Z" fill="#141522" stroke="#141522" stroke-width="0.372396"/>
</svg>
