<svg width="13" height="14" viewBox="0 0 13 14" fill="none" xmlns="http://www.w3.org/2000/svg">
<path d="M2.80957 5.71289C2.22412 5.71289 1.74512 6.19189 1.74512 6.77734C1.74512 7.36279 2.22412 7.8418 2.80957 7.8418C3.39502 7.8418 3.87402 7.36279 3.87402 6.77734C3.87402 6.19189 3.39502 5.71289 2.80957 5.71289Z" fill="#141522" stroke="#141522" stroke-width="0.638672"/>
<path d="M10.2607 5.71289C9.67529 5.71289 9.19629 6.19189 9.19629 6.77734C9.19629 7.36279 9.67529 7.8418 10.2607 7.8418C10.8462 7.8418 11.3252 7.36279 11.3252 6.77734C11.3252 6.19189 10.8462 5.71289 10.2607 5.71289Z" fill="#141522" stroke="#141522" stroke-width="0.638672"/>
<path d="M6.53516 5.71289C5.94971 5.71289 5.4707 6.19189 5.4707 6.77734C5.4707 7.36279 5.94971 7.8418 6.53516 7.8418C7.12061 7.8418 7.59961 7.36279 7.59961 6.77734C7.59961 6.19189 7.12061 5.71289 6.53516 5.71289Z" fill="#141522" stroke="#141522" stroke-width="0.638672"/>
</svg>
