<svg width="16" height="16" viewBox="0 0 16 16" fill="none" xmlns="http://www.w3.org/2000/svg">
<path d="M14.4665 6.83599L13.8406 9.50564C13.3041 11.8112 12.2439 12.7437 10.2513 12.5521C9.93193 12.5266 9.58705 12.4691 9.21662 12.3797L8.14365 12.1242C5.48039 11.4919 4.6565 10.1762 5.2824 7.5066L5.9083 4.83056C6.03603 4.28769 6.18931 3.81508 6.38091 3.42549C7.12816 1.8799 8.39912 1.46476 10.5323 1.96931L11.5989 2.2184C14.2749 2.84429 15.0924 4.16634 14.4665 6.83599Z" stroke="#54577A" stroke-width="0.958008" stroke-linecap="round" stroke-linejoin="round"/>
<path d="M10.2511 12.5522C9.85515 12.8204 9.35699 13.0439 8.75025 13.2419L7.74115 13.574C5.20562 14.3915 3.8708 13.7082 3.04691 11.1726L2.22941 8.64987C1.41191 6.11435 2.0889 4.77313 4.62443 3.95563L5.63353 3.62353C5.89539 3.5405 6.14447 3.47024 6.38078 3.42554C6.18917 3.81513 6.03589 4.28774 5.90816 4.83062L5.28226 7.50665C4.65636 10.1763 5.48025 11.492 8.14351 12.1242L9.21648 12.3797C9.58691 12.4691 9.93179 12.5266 10.2511 12.5522Z" stroke="#54577A" stroke-width="0.958008" stroke-linecap="round" stroke-linejoin="round"/>
<path d="M8.70557 5.61597L11.8031 6.40153" stroke="#54577A" stroke-width="0.958008" stroke-linecap="round" stroke-linejoin="round"/>
<path d="M8.07983 8.08765L9.93198 8.56026" stroke="#54577A" stroke-width="0.958008" stroke-linecap="round" stroke-linejoin="round"/>
</svg>
