<svg width="13" height="14" viewBox="0 0 13 14" fill="none" xmlns="http://www.w3.org/2000/svg">
<path d="M2.80957 5.71301C2.22412 5.71301 1.74512 6.19202 1.74512 6.77747C1.74512 7.36292 2.22412 7.84192 2.80957 7.84192C3.39502 7.84192 3.87402 7.36292 3.87402 6.77747C3.87402 6.19202 3.39502 5.71301 2.80957 5.71301Z" fill="#141522" stroke="#141522" stroke-width="0.638672"/>
<path d="M10.2607 5.71301C9.67529 5.71301 9.19629 6.19202 9.19629 6.77747C9.19629 7.36292 9.67529 7.84192 10.2607 7.84192C10.8462 7.84192 11.3252 7.36292 11.3252 6.77747C11.3252 6.19202 10.8462 5.71301 10.2607 5.71301Z" fill="#141522" stroke="#141522" stroke-width="0.638672"/>
<path d="M6.53516 5.71301C5.94971 5.71301 5.4707 6.19202 5.4707 6.77747C5.4707 7.36292 5.94971 7.84192 6.53516 7.84192C7.12061 7.84192 7.59961 7.36292 7.59961 6.77747C7.59961 6.19202 7.12061 5.71301 6.53516 5.71301Z" fill="#141522" stroke="#141522" stroke-width="0.638672"/>
</svg>
