<svg width="16" height="16" viewBox="0 0 16 16" fill="none" xmlns="http://www.w3.org/2000/svg">
<path d="M13.6741 6.03061V10.3991C13.6741 11.1144 13.2909 11.7787 12.6714 12.1427L8.8777 14.3333C8.25819 14.691 7.49178 14.691 6.86588 14.3333L3.07217 12.1427C2.45266 11.785 2.06946 11.1208 2.06946 10.3991V6.03061C2.06946 5.3153 2.45266 4.65105 3.07217 4.28701L6.86588 2.09637C7.4854 1.73871 8.2518 1.73871 8.8777 2.09637L12.6714 4.28701C13.2909 4.65105 13.6741 5.30891 13.6741 6.03061Z" stroke="#7676B2" stroke-width="0.958008" stroke-linecap="round" stroke-linejoin="round"/>
<path d="M7.87495 7.5758C8.6968 7.5758 9.36305 6.90954 9.36305 6.08769C9.36305 5.26583 8.6968 4.59961 7.87495 4.59961C7.05309 4.59961 6.38684 5.26583 6.38684 6.08769C6.38684 6.90954 7.05309 7.5758 7.87495 7.5758Z" stroke="#7676B2" stroke-width="0.958008" stroke-linecap="round" stroke-linejoin="round"/>
<path d="M10.4297 11.1907C10.4297 10.0411 9.28646 9.10864 7.875 9.10864C6.46354 9.10864 5.32031 10.0411 5.32031 11.1907" stroke="#7676B2" stroke-width="0.958008" stroke-linecap="round" stroke-linejoin="round"/>
</svg>
