<svg width="21" height="21" viewBox="0 0 21 21" fill="none" xmlns="http://www.w3.org/2000/svg">
<path d="M18.8498 8.86481L18.0374 12.3298C17.3411 15.3223 15.9651 16.5326 13.3788 16.2839C12.9643 16.2507 12.5167 16.1761 12.0359 16.0601L10.6432 15.7285C7.18652 14.9078 6.11718 13.2002 6.92955 9.73521L7.74191 6.26192C7.9077 5.55731 8.10665 4.94389 8.35533 4.43824C9.3252 2.43218 10.9748 1.89337 13.7435 2.54824L15.1278 2.87152C18.6011 3.68389 19.6622 5.39981 18.8498 8.86481Z" stroke="#7676B2" stroke-width="1.24342" stroke-linecap="round" stroke-linejoin="round"/>
<path d="M13.3787 16.2839C12.8647 16.632 12.2182 16.9222 11.4307 17.1792L10.1209 17.6102C6.83 18.6713 5.0975 17.7843 4.02816 14.4934L2.96711 11.219C1.90605 7.9281 2.78474 6.18731 6.07566 5.12626L7.38539 4.69521C7.72526 4.58744 8.04855 4.49626 8.35526 4.43823C8.10658 4.94389 7.90763 5.55731 7.74184 6.26192L6.92947 9.73521C6.11711 13.2002 7.18645 14.9078 10.6432 15.7285L12.0358 16.0601C12.5166 16.1761 12.9642 16.2507 13.3787 16.2839Z" stroke="#7676B2" stroke-width="1.24342" stroke-linecap="round" stroke-linejoin="round"/>
<path d="M11.3728 7.28137L15.3932 8.30098" stroke="#7676B2" stroke-width="1.24342" stroke-linecap="round" stroke-linejoin="round"/>
<path d="M10.5603 10.4894L12.9643 11.1028" stroke="#7676B2" stroke-width="1.24342" stroke-linecap="round" stroke-linejoin="round"/>
</svg>
