<svg width="16" height="16" viewBox="0 0 16 16" fill="none" xmlns="http://www.w3.org/2000/svg">
<path d="M14.4664 6.83599L13.8405 9.50564C13.304 11.8112 12.2438 12.7437 10.2511 12.5521C9.93181 12.5266 9.58692 12.4691 9.21649 12.3797L8.14353 12.1242C5.48026 11.4919 4.65638 10.1762 5.28228 7.5066L5.90817 4.83056C6.03591 4.28769 6.18919 3.81508 6.38079 3.42549C7.12804 1.8799 8.39899 1.46476 10.5322 1.96931L11.5987 2.2184C14.2748 2.84429 15.0923 4.16634 14.4664 6.83599Z" stroke="#54577A" stroke-width="0.958008" stroke-linecap="round" stroke-linejoin="round"/>
<path d="M10.2512 12.5522C9.85527 12.8204 9.35711 13.0439 8.75037 13.2419L7.74127 13.574C5.20574 14.3915 3.87092 13.7082 3.04703 11.1726L2.22953 8.64987C1.41203 6.11435 2.08902 4.77313 4.62455 3.95563L5.63365 3.62353C5.89551 3.5405 6.14459 3.47024 6.3809 3.42554C6.1893 3.81513 6.03602 4.28774 5.90828 4.83062L5.28238 7.50665C4.65648 10.1763 5.48037 11.492 8.14363 12.1242L9.2166 12.3797C9.58703 12.4691 9.93191 12.5266 10.2512 12.5522Z" stroke="#54577A" stroke-width="0.958008" stroke-linecap="round" stroke-linejoin="round"/>
<path d="M8.70557 5.61609L11.8031 6.40166" stroke="#54577A" stroke-width="0.958008" stroke-linecap="round" stroke-linejoin="round"/>
<path d="M8.07971 8.08765L9.93186 8.56026" stroke="#54577A" stroke-width="0.958008" stroke-linecap="round" stroke-linejoin="round"/>
</svg>
