<svg width="8" height="9" viewBox="0 0 8 9" fill="none" xmlns="http://www.w3.org/2000/svg">
<path d="M2.04131 4.04089C1.69995 4.04089 1.42065 4.32019 1.42065 4.66155C1.42065 5.00292 1.69995 5.28221 2.04131 5.28221C2.38268 5.28221 2.66197 5.00292 2.66197 4.66155C2.66197 4.32019 2.38268 4.04089 2.04131 4.04089Z" fill="#141522" stroke="#141522" stroke-width="0.372396"/>
<path d="M6.38592 4.04089C6.04456 4.04089 5.76526 4.32019 5.76526 4.66155C5.76526 5.00292 6.04456 5.28221 6.38592 5.28221C6.72728 5.28221 7.00658 5.00292 7.00658 4.66155C7.00658 4.32019 6.72728 4.04089 6.38592 4.04089Z" fill="#141522" stroke="#141522" stroke-width="0.372396"/>
<path d="M4.21356 4.04089C3.87219 4.04089 3.5929 4.32019 3.5929 4.66155C3.5929 5.00292 3.87219 5.28221 4.21356 5.28221C4.55492 5.28221 4.83421 5.00292 4.83421 4.66155C4.83421 4.32019 4.55492 4.04089 4.21356 4.04089Z" fill="#141522" stroke="#141522" stroke-width="0.372396"/>
</svg>
