<svg width="16" height="16" viewBox="0 0 16 16" fill="none" xmlns="http://www.w3.org/2000/svg">
<path d="M14.2617 10.8126V3.10385C14.2617 2.33744 13.6358 1.76902 12.8758 1.83289H12.8375C11.4963 1.94785 9.45891 2.63123 8.32207 3.34654L8.2135 3.4168C8.02828 3.53176 7.72172 3.53176 7.5365 3.4168L7.37684 3.321C6.24 2.61207 4.20902 1.93508 2.86781 1.8265C2.10779 1.76264 1.48828 2.33744 1.48828 3.09746V10.8126C1.48828 11.4257 1.98645 12.0005 2.59957 12.0772L2.78479 12.1027C4.1707 12.2879 6.31025 12.9905 7.5365 13.6611L7.56205 13.6739C7.73449 13.7697 8.00912 13.7697 8.17518 13.6739C9.40143 12.9969 11.5474 12.2879 12.9397 12.1027L13.1504 12.0772C13.7636 12.0005 14.2617 11.4257 14.2617 10.8126Z" stroke="#7676B2" stroke-width="0.958008" stroke-linecap="round" stroke-linejoin="round"/>
<path d="M7.875 3.62756V13.2076" stroke="#7676B2" stroke-width="0.958008" stroke-linecap="round" stroke-linejoin="round"/>
<path d="M5.16064 5.54358H3.72363" stroke="#7676B2" stroke-width="0.958008" stroke-linecap="round" stroke-linejoin="round"/>
<path d="M5.63965 7.45959H3.72363" stroke="#7676B2" stroke-width="0.958008" stroke-linecap="round" stroke-linejoin="round"/>
</svg>
