<svg width="17" height="16" viewBox="0 0 17 16" fill="none" xmlns="http://www.w3.org/2000/svg">
<path d="M14.5446 6.83587L13.9187 9.50552C13.3822 11.8111 12.322 12.7436 10.3294 12.552C10.0101 12.5264 9.66517 12.469 9.29474 12.3795L8.22177 12.1241C5.55851 11.4918 4.73462 10.1761 5.36052 7.50648L5.98642 4.83044C6.11416 4.28757 6.26744 3.81495 6.45904 3.42536C7.20628 1.87978 8.47724 1.46464 10.6104 1.96919L11.677 2.21827C14.353 2.84417 15.1705 4.16622 14.5446 6.83587Z" stroke="#54577A" stroke-width="0.958008" stroke-linecap="round" stroke-linejoin="round"/>
<path d="M10.3293 12.552C9.93328 12.8203 9.43511 13.0438 8.82837 13.2418L7.81927 13.5739C5.28374 14.3914 3.94892 13.708 3.12503 11.1725L2.30753 8.64975C1.49003 6.11422 2.16703 4.77301 4.70255 3.95551L5.71165 3.6234C5.97351 3.54038 6.22259 3.47012 6.4589 3.42542C6.2673 3.815 6.11402 4.28762 5.98628 4.83049L5.36039 7.50653C4.73449 10.1762 5.55837 11.4918 8.22164 12.1241L9.2946 12.3796C9.66503 12.469 10.0099 12.5265 10.3293 12.552Z" stroke="#54577A" stroke-width="0.958008" stroke-linecap="round" stroke-linejoin="round"/>
<path d="M8.78369 5.61584L11.8812 6.40141" stroke="#54577A" stroke-width="0.958008" stroke-linecap="round" stroke-linejoin="round"/>
<path d="M8.15796 8.08752L10.0101 8.56014" stroke="#54577A" stroke-width="0.958008" stroke-linecap="round" stroke-linejoin="round"/>
</svg>
